# xmcd
#
# Track frame offsets:
# 150
# 17777
# 29097
# 45247
# 59767
# 75283
# 92656
# 134461
# 145461
# 155904
# 174734
#
# Disc length: 3200 seconds
#
# Revision: 1
# Processed by: cddbd v1.5.1PL0 Copyright (c) Steve Scherf et al.
# Submitted via: inCDius 2.0b9
#
DISCID=980c7e0b
DTITLE=Nitty Gritty Dirt Band - Unbroken [CD 1)
DYEAR=1900
DGENRE=
TTITLE0=Cosmic Cowboy
TTITLE1=The Moon Just Turned Blue
TTITLE2=Dance Little Jean
TTITLE3=Let's Make Some Magic
TTITLE4=Shot Full of Love
TTITLE5=American Dream
TTITLE6=Ripplin' Waters
TTITLE7=Teardrops in My eyes
TTITLE8=Rocky Top
TTITLE9=Mr. Bojangles
TTITLE10=Medley (Runaway, Rave On, The Weight, Will the Circle Be Unbroken)
EXTD=Recorded live in April 1984
EXTT0=
EXTT1=
EXTT2=
EXTT3=
EXTT4=
EXTT5=
EXTT6=
EXTT7=
EXTT8=
EXTT9=
EXTT10=
PLAYORDER=
